# xmcd
#
# Track frame offsets: 
#        150
#        17535
#        43550
#        63907
#        86097
#        114490
#        131980
#        177532
#        196807
#        218352
#        233752
#        245530
#        268335
#        300882
#
# Disc length: 4289 seconds
#
# Revision: 4
# Processed by: cddbd v1.5.2PL0 Copyright (c) Steve Scherf et al.
# Submitted via: ExactAudioCopy v1.0b3
#
DISCID=ba10bf0e
DTITLE=Clarence ''Gatemouth'' Brown - The Blues Ain't Nothing
DYEAR=1971
DGENRE=Blues
TTITLE0=Sad Sad Hour
TTITLE1=You Got Money
TTITLE2=My Time Is Expensive
TTITLE3=Slow Down
TTITLE4=Taking My Chance
TTITLE5=Just Got Lucky
TTITLE6=Deep Deep Water
TTITLE7=Goin' To Chicago
TTITLE8=Dirty Work At Crossroads
TTITLE9=Here I Am
TTITLE10=New Okie Dokie Stomp
TTITLE11=Piney Brown Blues
TTITLE12=Hot Club Drive
TTITLE13=The People
EXTD=
EXTT0=
EXTT1=
EXTT2=
EXTT3=
EXTT4=
EXTT5=
EXTT6=
EXTT7=
EXTT8=
EXTT9=
EXTT10=
EXTT11=
EXTT12=
EXTT13=
PLAYORDER=
